<mxfile host="app.diagrams.net" modified="2021-08-20T06:46:23.874Z" agent="5.0 (Macintosh; Intel Mac OS X 10_15_6) AppleWebKit/537.36 (KHTML, like Gecko) Chrome/92.0.4515.131 Safari/537.36" etag="jZVOQVdeseoN7bLQx84L" version="14.9.8" type="github" pages="2">
  <diagram id="w-yBSb1UH_IL-OTTQWR8" name="Page-1">
    <mxGraphModel dx="1666" dy="937" grid="1" gridSize="10" guides="1" tooltips="1" connect="1" arrows="1" fold="1" page="1" pageScale="1" pageWidth="827" pageHeight="1169" background="none" math="0" shadow="0">
      <root>
        <mxCell id="0" />
        <mxCell id="1" parent="0" />
        <mxCell id="AcG9Qibjat7s5igX1NYG-2" value="string line;" style="whiteSpace=wrap;html=1;fontFamily=Courier New;align=left;labelBorderColor=none;rounded=0;shadow=0;sketch=0;glass=0;fillColor=#FFCCCC;strokeColor=none;" parent="1" vertex="1">
          <mxGeometry x="920" y="620" width="120" height="20" as="geometry" />
        </mxCell>
        <mxCell id="AcG9Qibjat7s5igX1NYG-3" value="Console.WriteLine(&quot;Pick the array size:&quot;);" style="whiteSpace=wrap;html=1;fontFamily=Courier New;align=left;labelBorderColor=none;rounded=0;shadow=0;sketch=0;glass=0;fillColor=#FFCCCC;strokeColor=none;" parent="1" vertex="1">
          <mxGeometry x="690" y="650" width="320" height="30" as="geometry" />
        </mxCell>
        <mxCell id="AcG9Qibjat7s5igX1NYG-5" value="line = Console.ReadLine();" style="whiteSpace=wrap;html=1;fontFamily=Courier New;align=left;labelBorderColor=none;rounded=0;shadow=0;sketch=0;glass=0;fillColor=#FFCCCC;strokeColor=none;" parent="1" vertex="1">
          <mxGeometry x="510" y="480" width="190" height="30" as="geometry" />
        </mxCell>
        <mxCell id="AcG9Qibjat7s5igX1NYG-6" value="int arraySize = Convert.ToInt32(line);" style="whiteSpace=wrap;html=1;fontFamily=Courier New;align=left;labelBorderColor=none;rounded=0;shadow=0;sketch=0;glass=0;fillColor=#FFCCCC;strokeColor=none;" parent="1" vertex="1">
          <mxGeometry x="680" y="290" width="270" height="20" as="geometry" />
        </mxCell>
        <mxCell id="AcG9Qibjat7s5igX1NYG-7" value="int[] array;" style="whiteSpace=wrap;html=1;fontFamily=Courier New;align=left;labelBorderColor=none;rounded=0;shadow=0;sketch=0;glass=0;fillColor=#FFCCCC;strokeColor=none;" parent="1" vertex="1">
          <mxGeometry x="400" y="390" width="120" height="20" as="geometry" />
        </mxCell>
        <mxCell id="AcG9Qibjat7s5igX1NYG-8" value="array = new int[arraySize];" style="whiteSpace=wrap;html=1;fontFamily=Courier New;align=left;labelBorderColor=none;rounded=0;shadow=0;sketch=0;glass=0;fillColor=#FFCCCC;strokeColor=none;" parent="1" vertex="1">
          <mxGeometry x="675" y="380" width="280" height="20" as="geometry" />
        </mxCell>
        <mxCell id="AcG9Qibjat7s5igX1NYG-9" value="int i = 0;" style="whiteSpace=wrap;html=1;fontFamily=Courier New;align=left;labelBorderColor=none;rounded=0;shadow=0;sketch=0;glass=0;fillColor=#FFCCCC;strokeColor=none;" parent="1" vertex="1">
          <mxGeometry x="869" y="410" width="120" height="20" as="geometry" />
        </mxCell>
        <mxCell id="AcG9Qibjat7s5igX1NYG-10" value="while (i &amp;lt; array.Length)&lt;br&gt;{" style="whiteSpace=wrap;html=1;fontFamily=Courier New;align=left;labelBorderColor=none;rounded=0;shadow=0;sketch=0;glass=0;fillColor=#FFCCCC;strokeColor=none;" parent="1" vertex="1">
          <mxGeometry x="675" y="430" width="200" height="40" as="geometry" />
        </mxCell>
        <mxCell id="AcG9Qibjat7s5igX1NYG-11" value="Console.WriteLine($&quot;Input element {i}:&quot;);" style="whiteSpace=wrap;html=1;fontFamily=Courier New;align=left;rounded=0;shadow=0;sketch=0;glass=0;fillColor=#FFCCCC;strokeColor=none;" parent="1" vertex="1">
          <mxGeometry x="690" y="520" width="310" height="30" as="geometry" />
        </mxCell>
        <mxCell id="AcG9Qibjat7s5igX1NYG-12" value="line = Console.ReadLine();" style="whiteSpace=wrap;html=1;fontFamily=Courier New;align=left;rounded=0;shadow=0;sketch=0;glass=0;fillColor=#FFCCCC;strokeColor=none;" parent="1" vertex="1">
          <mxGeometry x="390" y="600" width="220" height="20" as="geometry" />
        </mxCell>
        <mxCell id="AcG9Qibjat7s5igX1NYG-13" value="int number = Convert.ToInt32(line);" style="whiteSpace=wrap;html=1;fontFamily=Courier New;align=left;rounded=0;shadow=0;sketch=0;glass=0;fillColor=#FFCCCC;strokeColor=none;" parent="1" vertex="1">
          <mxGeometry x="650" y="585" width="270" height="20" as="geometry" />
        </mxCell>
        <mxCell id="AcG9Qibjat7s5igX1NYG-14" value="array[i] = number;" style="whiteSpace=wrap;html=1;fontFamily=Courier New;align=left;rounded=0;shadow=0;sketch=0;glass=0;fillColor=#FFCCCC;strokeColor=none;" parent="1" vertex="1">
          <mxGeometry x="360" y="650" width="260" height="25" as="geometry" />
        </mxCell>
        <mxCell id="AcG9Qibjat7s5igX1NYG-15" value="i += 1;" style="whiteSpace=wrap;html=1;fontFamily=Courier New;align=left;rounded=0;shadow=0;sketch=0;glass=0;fillColor=#FFCCCC;strokeColor=none;" parent="1" vertex="1">
          <mxGeometry x="380" y="540" width="120" height="20" as="geometry" />
        </mxCell>
        <mxCell id="AcG9Qibjat7s5igX1NYG-16" value="}" style="whiteSpace=wrap;html=1;fontFamily=Courier New;align=left;rounded=0;shadow=0;sketch=0;glass=0;fillColor=#FFCCCC;strokeColor=none;" parent="1" vertex="1">
          <mxGeometry x="909" y="460" width="120" height="30" as="geometry" />
        </mxCell>
        <mxCell id="AcG9Qibjat7s5igX1NYG-17" value="Console.WriteLine(&quot;The array is: &quot; + string.Join(&quot;, &quot;, array));" style="whiteSpace=wrap;html=1;fontFamily=Courier New;align=left;rounded=0;shadow=0;sketch=0;glass=0;fillColor=#FFCCCC;strokeColor=none;" parent="1" vertex="1">
          <mxGeometry x="590" y="340" width="490" height="20" as="geometry" />
        </mxCell>
        <mxCell id="AcG9Qibjat7s5igX1NYG-21" value="&lt;div&gt;for (int i = 0; i &amp;lt; 10; i++) {&lt;/div&gt;&lt;div&gt;&amp;nbsp;&amp;nbsp;&amp;nbsp; ...&lt;/div&gt;&lt;div&gt;}&lt;/div&gt;&lt;div&gt;&lt;br&gt;&lt;/div&gt;&lt;div&gt;&lt;br&gt;&lt;/div&gt;&lt;div&gt;&lt;br&gt;&lt;/div&gt;&lt;div&gt;&lt;br&gt;&lt;/div&gt;&lt;div&gt;int i = 0;&lt;br&gt;&lt;/div&gt;&lt;div&gt;while (i &amp;lt; 10) {&lt;/div&gt;&lt;div&gt;&amp;nbsp;&amp;nbsp;&amp;nbsp; ...&lt;/div&gt;&lt;div&gt;&amp;nbsp;&amp;nbsp;&amp;nbsp; i ++;&lt;/div&gt;&lt;div&gt;}&lt;br&gt;&lt;/div&gt;&lt;div&gt;&lt;br&gt;&lt;/div&gt;" style="whiteSpace=wrap;html=1;rounded=0;shadow=0;glass=0;sketch=0;fontFamily=Courier New;fillColor=#fff2cc;align=left;strokeColor=#d6b656;" parent="1" vertex="1">
          <mxGeometry x="620" y="20" width="310" height="220" as="geometry" />
        </mxCell>
      </root>
    </mxGraphModel>
  </diagram>
  <diagram id="ztWZJxQjT1A1rXcc722C" name="Answer">
    <mxGraphModel dx="1666" dy="937" grid="1" gridSize="10" guides="1" tooltips="1" connect="1" arrows="1" fold="1" page="1" pageScale="1" pageWidth="827" pageHeight="1169" math="0" shadow="0">
      <root>
        <mxCell id="5n6UuaxrBsOmRaY9HYxj-0" />
        <mxCell id="5n6UuaxrBsOmRaY9HYxj-1" parent="5n6UuaxrBsOmRaY9HYxj-0" />
        <mxCell id="5n6UuaxrBsOmRaY9HYxj-2" value="string line;" style="whiteSpace=wrap;html=1;fontFamily=Courier New;align=left;labelBorderColor=none;rounded=0;shadow=0;sketch=0;glass=0;fillColor=#FFCCCC;strokeColor=none;" vertex="1" parent="5n6UuaxrBsOmRaY9HYxj-1">
          <mxGeometry x="50" y="100" width="120" height="20" as="geometry" />
        </mxCell>
        <mxCell id="5n6UuaxrBsOmRaY9HYxj-3" value="Console.WriteLine(&quot;Pick the array size:&quot;);" style="whiteSpace=wrap;html=1;fontFamily=Courier New;align=left;labelBorderColor=none;rounded=0;shadow=0;sketch=0;glass=0;fillColor=#FFCCCC;strokeColor=none;" vertex="1" parent="5n6UuaxrBsOmRaY9HYxj-1">
          <mxGeometry x="50" y="50" width="320" height="30" as="geometry" />
        </mxCell>
        <mxCell id="5n6UuaxrBsOmRaY9HYxj-4" value="line = Console.ReadLine();" style="whiteSpace=wrap;html=1;fontFamily=Courier New;align=left;labelBorderColor=none;rounded=0;shadow=0;sketch=0;glass=0;fillColor=#FFCCCC;strokeColor=none;" vertex="1" parent="5n6UuaxrBsOmRaY9HYxj-1">
          <mxGeometry x="80" y="450" width="190" height="30" as="geometry" />
        </mxCell>
        <mxCell id="5n6UuaxrBsOmRaY9HYxj-5" value="int arraySize = Convert.ToInt32(line);" style="whiteSpace=wrap;html=1;fontFamily=Courier New;align=left;labelBorderColor=none;rounded=0;shadow=0;sketch=0;glass=0;fillColor=#FFCCCC;strokeColor=none;" vertex="1" parent="5n6UuaxrBsOmRaY9HYxj-1">
          <mxGeometry x="50" y="170" width="310" height="20" as="geometry" />
        </mxCell>
        <mxCell id="5n6UuaxrBsOmRaY9HYxj-6" value="int[] array;" style="whiteSpace=wrap;html=1;fontFamily=Courier New;align=left;labelBorderColor=none;rounded=0;shadow=0;sketch=0;glass=0;fillColor=#FFCCCC;strokeColor=none;" vertex="1" parent="5n6UuaxrBsOmRaY9HYxj-1">
          <mxGeometry x="50" y="220" width="120" height="20" as="geometry" />
        </mxCell>
        <mxCell id="5n6UuaxrBsOmRaY9HYxj-7" value="array = new int[arraySize];" style="whiteSpace=wrap;html=1;fontFamily=Courier New;align=left;labelBorderColor=none;rounded=0;shadow=0;sketch=0;glass=0;fillColor=#FFCCCC;strokeColor=none;" vertex="1" parent="5n6UuaxrBsOmRaY9HYxj-1">
          <mxGeometry x="50" y="250" width="280" height="20" as="geometry" />
        </mxCell>
        <mxCell id="5n6UuaxrBsOmRaY9HYxj-8" value="int i = 0;" style="whiteSpace=wrap;html=1;fontFamily=Courier New;align=left;labelBorderColor=none;rounded=0;shadow=0;sketch=0;glass=0;fillColor=#FFCCCC;strokeColor=none;" vertex="1" parent="5n6UuaxrBsOmRaY9HYxj-1">
          <mxGeometry x="50" y="330" width="120" height="20" as="geometry" />
        </mxCell>
        <mxCell id="5n6UuaxrBsOmRaY9HYxj-9" value="while (i &amp;lt; array.Length)&lt;br&gt;{" style="whiteSpace=wrap;html=1;fontFamily=Courier New;align=left;labelBorderColor=none;rounded=0;shadow=0;sketch=0;glass=0;fillColor=#FFCCCC;strokeColor=none;" vertex="1" parent="5n6UuaxrBsOmRaY9HYxj-1">
          <mxGeometry x="50" y="360" width="200" height="40" as="geometry" />
        </mxCell>
        <mxCell id="5n6UuaxrBsOmRaY9HYxj-10" value="Console.WriteLine($&quot;Input element {i}:&quot;);" style="whiteSpace=wrap;html=1;fontFamily=Courier New;align=left;rounded=0;shadow=0;sketch=0;glass=0;fillColor=#FFCCCC;strokeColor=none;" vertex="1" parent="5n6UuaxrBsOmRaY9HYxj-1">
          <mxGeometry x="80" y="420" width="310" height="30" as="geometry" />
        </mxCell>
        <mxCell id="5n6UuaxrBsOmRaY9HYxj-11" value="line = Console.ReadLine();" style="whiteSpace=wrap;html=1;fontFamily=Courier New;align=left;rounded=0;shadow=0;sketch=0;glass=0;fillColor=#FFCCCC;strokeColor=none;" vertex="1" parent="5n6UuaxrBsOmRaY9HYxj-1">
          <mxGeometry x="50" y="130" width="220" height="20" as="geometry" />
        </mxCell>
        <mxCell id="5n6UuaxrBsOmRaY9HYxj-12" value="int number = Convert.ToInt32(line);" style="whiteSpace=wrap;html=1;fontFamily=Courier New;align=left;rounded=0;shadow=0;sketch=0;glass=0;fillColor=#FFCCCC;strokeColor=none;" vertex="1" parent="5n6UuaxrBsOmRaY9HYxj-1">
          <mxGeometry x="80" y="500" width="270" height="20" as="geometry" />
        </mxCell>
        <mxCell id="5n6UuaxrBsOmRaY9HYxj-13" value="array[i] = number;" style="whiteSpace=wrap;html=1;fontFamily=Courier New;align=left;rounded=0;shadow=0;sketch=0;glass=0;fillColor=#FFCCCC;strokeColor=none;" vertex="1" parent="5n6UuaxrBsOmRaY9HYxj-1">
          <mxGeometry x="80" y="530" width="260" height="25" as="geometry" />
        </mxCell>
        <mxCell id="5n6UuaxrBsOmRaY9HYxj-14" value="i += 1;" style="whiteSpace=wrap;html=1;fontFamily=Courier New;align=left;rounded=0;shadow=0;sketch=0;glass=0;fillColor=#FFCCCC;strokeColor=none;" vertex="1" parent="5n6UuaxrBsOmRaY9HYxj-1">
          <mxGeometry x="80" y="590" width="120" height="20" as="geometry" />
        </mxCell>
        <mxCell id="5n6UuaxrBsOmRaY9HYxj-15" value="}" style="whiteSpace=wrap;html=1;fontFamily=Courier New;align=left;rounded=0;shadow=0;sketch=0;glass=0;fillColor=#FFCCCC;strokeColor=none;" vertex="1" parent="5n6UuaxrBsOmRaY9HYxj-1">
          <mxGeometry x="40" y="620" width="120" height="30" as="geometry" />
        </mxCell>
        <mxCell id="5n6UuaxrBsOmRaY9HYxj-16" value="Console.WriteLine(&quot;The array is: &quot; + string.Join(&quot;, &quot;, array));" style="whiteSpace=wrap;html=1;fontFamily=Courier New;align=left;rounded=0;shadow=0;sketch=0;glass=0;fillColor=#FFCCCC;strokeColor=none;" vertex="1" parent="5n6UuaxrBsOmRaY9HYxj-1">
          <mxGeometry x="40" y="670" width="490" height="20" as="geometry" />
        </mxCell>
        <mxCell id="5n6UuaxrBsOmRaY9HYxj-17" value="&lt;div&gt;for (int i = 0; i &amp;lt; 10; i++) {&lt;/div&gt;&lt;div&gt;&amp;nbsp;&amp;nbsp;&amp;nbsp; ...&lt;/div&gt;&lt;div&gt;}&lt;/div&gt;&lt;div&gt;&lt;br&gt;&lt;/div&gt;&lt;div&gt;&lt;br&gt;&lt;/div&gt;&lt;div&gt;&lt;br&gt;&lt;/div&gt;&lt;div&gt;&lt;br&gt;&lt;/div&gt;&lt;div&gt;int i = 0;&lt;br&gt;&lt;/div&gt;&lt;div&gt;while (i &amp;lt; 10) {&lt;/div&gt;&lt;div&gt;&amp;nbsp;&amp;nbsp;&amp;nbsp; ...&lt;/div&gt;&lt;div&gt;&amp;nbsp;&amp;nbsp;&amp;nbsp; i ++;&lt;/div&gt;&lt;div&gt;}&lt;br&gt;&lt;/div&gt;&lt;div&gt;&lt;br&gt;&lt;/div&gt;" style="whiteSpace=wrap;html=1;rounded=0;shadow=0;glass=0;sketch=0;fontFamily=Courier New;fillColor=#fff2cc;align=left;strokeColor=#d6b656;" vertex="1" parent="5n6UuaxrBsOmRaY9HYxj-1">
          <mxGeometry x="620" y="20" width="310" height="220" as="geometry" />
        </mxCell>
      </root>
    </mxGraphModel>
  </diagram>
</mxfile>
